<svg width="1024" height="1024" viewBox="0 0 1024 1024" fill="none" xmlns="http://www.w3.org/2000/svg">
<path d="M557.909 227.139C577.419 226.318 606.219 251.608 621.079 263.672C619.859 260.599 618.609 256.556 617.529 253.356C622.869 255.785 626.969 259.427 631.524 263.08C630.909 259.353 629.989 256.122 629.004 252.474C636.434 256.97 640.229 259.951 646.669 265.71C674.689 262.197 685.009 260.368 714.439 265.905C719.869 259.866 726.044 256.409 732.944 252.425C730.969 256.598 730.424 259.043 729.539 263.506C735.569 258.034 737.214 256.86 744.419 253.052C742.249 257.186 741.189 259.847 739.509 264.242C743.419 260.612 753.934 252.431 758.819 248.825C770.089 240.646 789.334 225.969 803.389 227.401C814.684 228.551 816.834 250.29 817.649 259.695C818.994 275.188 817.334 291.558 814.129 307.248C819.914 308.065 823.859 310.94 828.349 314.31C822.319 314.342 818.234 315.344 812.384 316.472C819.639 319.464 824.689 323.336 830.129 328.846C824.454 327.62 818.909 327.742 813.144 327.768C828.184 333.54 832.949 352.465 841.704 364.135C844.809 368.274 848.794 370.983 853.024 373.871C846.129 374.162 842.474 374.358 836.044 371.457C840.834 376.469 842.079 378.943 845.579 384.54C853.664 397.487 854.849 405.729 856.194 420.499C851.714 408.863 847.469 403.719 836.864 397.435C847.519 412.401 853.564 428.657 851.189 447.009C848.184 438.715 845.874 435.014 838.929 429.457C848.714 448.451 837.864 468.056 855.729 482.339C842.254 478.658 837.994 476.289 830.249 464.483C833.589 479.529 839.559 489.533 844.294 503.865C846.094 509.315 846.159 517.67 846.369 523.535C840.874 513.445 838.884 511.42 830.294 503.895C840.004 521.62 841.684 541.7 831.464 559.45C831.449 549.745 830.224 545.105 825.044 536.98C825.169 550.77 822.939 561.44 813.959 572.155C835.189 577.075 851.479 592.38 842.409 615.365C858.124 614.985 874.139 615.26 889.884 615.315C896.549 615.945 906.379 614.39 912.624 615.835C929.459 619.715 927.264 642.33 909.139 642.58C901.599 642.685 894.034 642.575 886.639 642.52L851.584 642.525L728.249 642.52L522.694 642.91C444.198 642.27 365.697 642.18 287.199 642.64C306.188 659.355 332.834 664.385 357.306 659.71C342.818 670.09 333.439 674.16 315.223 673.475C321.293 675.99 327.607 677.87 334.065 679.09C360.773 684.38 389.04 680.51 411.939 665.28C411.274 667.46 410.424 669.575 409.401 671.61C403.24 683.79 393.122 691.175 380.429 695.36C389.1 694.495 397.228 693.425 405.405 690.175C429.412 680.635 453.515 662.82 480.483 663.025C465.154 668.205 453.726 679.725 445.273 693.135C456.781 683.55 465.129 679.13 479.245 673.99C501.334 665.95 535.009 667.22 556.149 677.785C537.684 674.84 520.999 677.635 504.394 686.02C548.549 679.135 583.919 689.83 612.914 724.835C599.754 716.535 588.009 713.505 572.519 714.12C583.184 716.965 594.919 722.86 603.794 729.365C626.579 746.07 635.229 767.01 639.584 793.67C632.359 776.975 623.764 770.455 609.109 761.39C611.989 764.575 615.009 767.725 617.414 771.295C632.879 794.29 637.654 826.705 626.979 852.585C624.294 859.245 621.259 865.64 616.939 871.385C620.499 853.76 618.924 837.945 610.569 821.97C622.634 865.005 596.114 902.185 557.009 918.62C559.209 915.075 560.964 911.27 562.239 907.29C567.094 892.455 564.014 880.73 557.299 867.335C559.399 881.245 555.664 893.97 544.019 902.755C542.749 903.71 541.099 905.355 539.539 905.195C541.204 902.245 542.089 899.805 542.539 896.465C544.699 880.52 539.594 871.41 530.009 859.46C531.374 873.275 525.934 881.095 515.864 889.68C522.129 865.505 511.379 847.36 491.328 834.525C501.814 847.215 501.744 857.205 501.444 872.625C493.13 848.595 472.066 835.43 448.359 829.075C443.291 827.715 437.264 827.16 432.015 826.46C447.763 836.475 452.606 841.92 457.149 859.825C441.069 845.665 427.543 841.65 405.76 842.155C396.868 842.36 390.27 843.79 380.987 842.84C356.613 840.355 341.225 832.375 322.338 818.07C333.966 834.375 343.612 842.885 362.481 851.09C348.31 851.32 329.762 847.095 316.264 842.285C284.736 831.045 256.179 806.6 241.807 776.15C245.382 797.865 247.934 803.855 261.28 822.005C249.044 814.915 241.408 808.73 231.55 798.265C212.451 777.985 197.838 744.4 199.314 716.235C193.649 735.835 195.175 752.945 201.52 771.99C171.77 736.89 163.551 697.61 173.423 652.805C164.187 670.52 158.706 687.775 161.947 707.97C153.239 686.715 149.168 665.645 152.462 642.59C139.176 642.21 124.709 643.385 111.514 642.21C95.6061 640.515 97.2816 616.51 111.299 615.695C126.638 614.805 143.835 615.115 159.17 615.32C163.739 603.67 170.493 588.685 179.322 579.875C164.589 586.225 156.796 598.875 149.033 611.86C150.194 607.47 150.387 603.055 151.19 598.585C156.144 570.915 173.386 545.36 194.998 527.81C202.665 521.585 203.645 517.275 207.101 508.315C209.062 503.235 211.222 498.178 213.042 492.987C206.105 497.86 201.257 503.17 196.741 510.265C202.417 480.959 222.072 457.166 245.08 439.25C232.379 442.491 227.08 444.985 216.269 452.537C229.491 433.72 257.911 412.292 279.986 405.818C269.78 405.079 265.778 404.696 256.166 408.341C278.924 386.283 313.025 378.707 343.558 374.605C334.222 371.685 322.906 371.02 313.154 371.094C352.392 356.657 383.065 353.789 424.106 363.04C416.82 356.921 410.114 353.699 401.348 350.18C408.492 350.787 415.935 350.667 423.035 351.384C442.668 353.367 458.744 359.971 475.742 369.437C471.986 363.467 470.703 360.527 468.397 353.839C481.124 364.675 504.104 378.525 521.224 369.53C525.604 367.228 528.794 363.342 531.909 359.603C522.659 361.285 519.414 361.236 510.484 358.036C532.244 351.692 532.219 338.015 548.369 327.788C541.674 327.189 537.129 327.048 530.759 328.884C536.724 322.931 541.589 320.613 548.889 316.528C543.779 315.121 538.104 313.845 532.819 314.425C538.194 309.934 540.399 308.877 546.964 306.782C542.654 284.86 539.964 254.372 550.239 233.027C551.719 229.949 554.574 227.96 557.909 227.139Z" fill="#698A72"/>
</svg>
