<svg width="805" height="802" viewBox="0 0 805 802" fill="none" xmlns="http://www.w3.org/2000/svg">
<path d="M459.18 0.17053C459.689 0.0273203 460.219 -0.0225343 460.746 0.00906958C484.826 1.45258 513.97 30.0539 533.096 42.9974C548.781 53.6109 558.051 47.4999 574.976 45.2789C593.116 42.7674 611.621 42.8219 629.816 44.7474C639.001 45.4954 648.826 49.1504 657.976 49.2509C669.421 49.3769 681.051 38.7679 689.281 32.2634C704.956 19.8684 722.861 5.72994 742.501 0.671936C763.821 -4.81956 763.806 30.9594 764.591 44.1389C765.011 53.0924 763.466 63.7919 762.326 72.6664C760.711 85.2639 757.576 97.8674 758.956 110.678C761.821 130.378 776.416 149.92 783.986 168.59C791.701 187.614 796.966 204.021 800.781 224.039C809.376 271.684 802.816 320.826 782.021 364.549C776.639 375.8 770.678 385.721 764.028 395.822C761.725 399.321 763.565 404.078 767.463 405.61C783.513 411.92 795.141 424.607 795.146 443.558C795.181 454.478 790.861 464.958 783.136 472.678C770.141 485.453 758.581 484.438 741.841 484.458L705.281 484.478H582.836L193.413 484.538C155.011 484.253 117.164 484.538 97.1641 474.383C92.4391 464.188 106.664 474.383 97.1641 474.383C129.872 545.133 224.055 551.493 289.15 534.233C320.065 526.033 350.718 514.678 382.876 512.113C409.566 509.988 437.236 515.288 461.791 525.613C514.701 547.833 549.456 590.803 558.061 648.368C566.386 704.048 543.706 752.323 499.961 786.448C489.731 794.428 470.896 806.248 457.596 799.083C445.776 792.723 451.111 777.348 451.011 766.793C451.566 754.148 447.696 739.073 439.981 728.758C428.916 714.753 405.021 704.058 387.96 701.198C344.424 693.898 303.27 715.423 260.915 720.818C254.666 721.618 248.685 722.398 242.41 722.713C199.044 724.783 156.001 714.308 118.434 692.548C22.2297 636.073 -27.4598 533.193 15.6667 426.368C22.2307 410.258 29.8457 395.308 34.5982 378.439C38.6157 364.178 40.9727 350.941 43.5447 336.383C47.4727 314.153 56.5467 291.63 68.1572 272.397C123.994 179.903 229.995 139.504 337.067 155.596C345.528 156.849 353.912 158.583 362.176 160.791C377.523 164.882 394.516 172.478 410.256 168.271C420.321 165.58 429.676 158.656 435.806 150.41C454.586 125.15 450.091 102.351 445.936 73.6599C444.236 58.9009 442.476 43.6324 444.161 28.8069C445.375 18.1238 447.255 3.52995 459.18 0.17053Z" fill="#6E8876"/>
</svg>
